<?xml version="1.0" encoding="utf-8"?>
<!-- Generator: Adobe Illustrator 15.1.0, SVG Export Plug-In . SVG Version: 6.00 Build 0)  -->
<!DOCTYPE svg PUBLIC "-//W3C//DTD SVG 1.1//EN" "http://www.w3.org/Graphics/SVG/1.1/DTD/svg11.dtd">
<svg version="1.1" id="Layer_1" xmlns="http://www.w3.org/2000/svg" xmlns:xlink="http://www.w3.org/1999/xlink" x="0px" y="0px"
	 width="1242.919px" height="814.234px" viewBox="0 0 1242.919 814.234" enable-background="new 0 0 1242.919 814.234"
	 xml:space="preserve">
<g>
	<defs>
		<rect id="SVGID_1_" y="3.75" width="1242.919" height="814.234"/>
	</defs>
	<clipPath id="SVGID_2_">
		<use xlink:href="#SVGID_1_"  overflow="visible"/>
	</clipPath>
	<path clip-path="url(#SVGID_2_)" fill="#FFFFFF" d="M1104.654,775.804c0,15.787-5.084,20.336-18.284,20.336h-1.962l-5.173-0.178
		v-40.315l5.173-0.178h1.962C1099.57,755.469,1104.654,760.018,1104.654,775.804 M1122.492,775.36
		c0-23.814-13.646-30.683-31.662-30.683h-28.72v62.434h28.63C1109.56,807.111,1122.492,797.033,1122.492,775.36 M1032.321,765.37
		c0,7.313-3.39,9.544-10.257,9.544h-8.83v-18.998h8.83C1028.932,755.916,1032.321,758.145,1032.321,765.37 M1037.227,781.602
		c5.619-1.427,13.111-6.333,13.111-17.303c0-14.806-9.99-19.622-23.368-19.622H996.11v62.434h17.214v-20.87h7.67l12.665,20.87
		h19.622l-16.322-24.35L1037.227,781.602z M961.326,781.691h-18.284l8.651-25.953h1.783L961.326,781.691z M987.726,807.111
		l-21.584-62.434h-25.687l-23.457,62.434h17.749l4.549-14.003h26.043l4.014,14.003H987.726z M889.706,781.691h-18.284l8.652-25.953
		h1.783L889.706,781.691z M916.107,807.111l-21.586-62.434h-25.687l-23.457,62.434h17.749l4.549-14.003h26.044l4.014,14.003H916.107
		z M820.229,775.894v20.335c-1.604,0.18-3.3,0.446-4.904,0.446c-11.417,0-17.66-3.211-17.66-20.603
		c0-17.481,8.562-20.604,23.279-20.604c6.153,0,11.684,0.893,14.805,1.427v-10.881c-6.6-1.516-13.467-2.141-20.246-2.141
		c-22.387,0-35.766,10.524-35.766,33.357c0,19.89,13.646,30.771,33.269,30.771c8.116,0,16.411-1.07,24.349-2.765v-29.344H820.229z
		 M753.426,765.37c0,7.313-3.39,9.544-10.257,9.544h-8.83v-18.998h8.83C750.036,755.916,753.426,758.145,753.426,765.37
		 M758.331,781.602c5.619-1.427,13.111-6.333,13.111-17.303c0-14.806-9.989-19.622-23.368-19.622h-30.86v62.434h17.214v-20.87h7.67
		l12.665,20.87h19.622l-16.322-24.35L758.331,781.602z M679.667,757.075l-23.903,28.897c-0.625-3.121-0.803-6.688-0.803-10.078
		c0-10.971,1.873-22.387,15.073-22.387C674.405,753.507,677.526,755.023,679.667,757.075 M660.313,794.713l23.903-28.898
		c0.624,3.122,0.892,6.689,0.892,10.079c0,10.971-1.873,22.388-15.073,22.388C665.664,798.282,662.542,796.764,660.313,794.713
		 M702.321,775.894c0-19.979-11.416-33.001-32.287-33.001c-20.96,0-32.376,13.022-32.376,33.001s11.416,33.089,32.376,33.089
		C690.905,808.983,702.321,795.873,702.321,775.894 M624.369,807.111v-62.434h-13.646v45.934h-0.98l-18.641-45.934h-25.688v62.434
		h13.646v-47.807h0.981l19.889,47.807H624.369z M523.266,807.111v-62.434H509.62v45.934h-0.981l-18.641-45.934h-25.687v62.434
		h13.647v-47.807h0.981l19.889,47.807H523.266z M429.527,781.691h-18.284l8.652-25.953h1.784L429.527,781.691z M455.928,807.111
		l-21.584-62.434h-25.687L385.2,807.111h17.749l4.548-14.003h26.044l4.014,14.003H455.928z M359.603,807.111h17.214v-62.435h-17.214
		V807.111z M333.292,756.451h19.086v-11.773h-55.209v11.773h18.909v50.66h17.214V756.451z M294.226,786.241
		c0-23.637-34.784-13.825-34.784-24.261c0-6.333,9.633-6.778,13.2-6.778c1.962,0,9.9,0.536,17.214,2.229v-12.219
		c-4.995-1.159-14.538-1.784-19.8-1.784c-9.009,0-28.541,1.695-28.541,20.782c0,12.843,9.097,16.589,19.622,18.284
		c5.262,0.892,15.34,0.713,15.34,7.046c0,5.797-7.313,7.135-13.021,7.135c-7.582,0-18.195-2.051-21.049-2.765v12.397
		c4.727,0.803,13.021,2.23,22.743,2.23C279.51,808.539,294.226,803.721,294.226,786.241 M210.834,807.111h17.214v-62.435h-17.214
		V807.111z M181.045,765.37c0,7.313-3.389,9.544-10.257,9.544h-8.83v-18.998h8.83C177.656,755.916,181.045,758.145,181.045,765.37
		 M185.951,781.602c5.619-1.427,13.111-6.333,13.111-17.303c0-14.806-9.99-19.622-23.368-19.622h-30.86v62.434h17.214v-20.87h7.67
		l12.665,20.87h19.622l-16.322-24.35L185.951,781.602z M111.746,807.111h17.214v-62.434h-17.214v23.992h-22.12v-23.992H72.413
		v62.434h17.213v-26.489h22.12V807.111z M60.909,794.267c-2.587,0.357-7.67,1.249-13.825,1.249
		c-12.843,0-20.068-4.816-20.068-19.801s7.225-19.8,20.068-19.8c4.906,0,9.009,0.624,13.201,1.249V745.57
		c-5.798-1.428-12.309-1.695-18.195-1.695C21.487,743.875,9,756.183,9,776.25c0,19.801,14.092,31.663,33.625,31.663
		c6.154,0,11.951-0.624,18.284-2.497V794.267z"/>
	<path clip-path="url(#SVGID_2_)" fill="#FFFFFF" d="M24.944,38.656H518.07v51.688c-5.516,0.822-12.095,3.055-14.501,9.168v531.644
		H289.438h-8.325h-1.06h-15.937h-1.059h-8.325H40.599V99.512c-2.574-6.54-9.943-8.665-15.654-9.34V38.656z M528.437,26.582h-0.179
		V3.75h-348.69l-16.031,22.637L147.504,3.75h-22.711l-16.031,22.637L92.729,3.75h-5.213l-13.49,22.637L60.537,3.75H15.912v22.831
		h-0.18v630.867h0.931h238.069h8.325h1.059h15.937h1.06h8.325h238.068h0.931V26.582z"/>
	<path clip-path="url(#SVGID_2_)" fill="#FFFFFF" d="M1091.559,595.146h24.363v-15.028h-70.471v15.028h24.135v64.665h21.973V595.146
		z M1019.607,606.531c0,9.335-4.325,12.181-13.092,12.181h-11.271v-24.249h11.271
		C1015.282,594.462,1019.607,597.308,1019.607,606.531 M1025.87,627.25c7.172-1.822,16.734-8.083,16.734-22.086
		c0-18.899-12.75-25.047-29.826-25.047h-39.393v79.693h21.974V633.17h9.791l16.166,26.641h25.045l-20.834-31.08L1025.87,627.25z
		 M930.125,627.365h-23.339l11.043-33.13h2.276L930.125,627.365z M963.823,659.811l-27.552-79.693h-32.786l-29.942,79.693h22.655
		l5.806-17.874h33.244l5.123,17.874H963.823z M839.047,659.811v-14.687h-40.302v-18.898h27.438v-14.117h-27.323v-17.532h38.594
		v-14.459h-60.566v79.693H839.047z M757.761,659.811v-79.693h-17.418v58.631h-1.253l-23.794-58.631h-32.788v79.693h17.419v-61.022
		h1.252l25.388,61.022H757.761z M641.41,659.811h21.972v-79.693H641.41V659.811z M628.433,595.146v-15.028H566.5v79.693h21.859
		v-28.575h28.803v-14.801h-28.803v-21.289H628.433z"/>
</g>
</svg>
